<svg version="1.1" id="Layer_1" xmlns="http://www.w3.org/2000/svg" xmlns:xlink="http://www.w3.org/1999/xlink" x="0px" y="0px"
	 width="100%" viewBox="0 0 1280 1280" enable-background="new 0 0 1280 1280" xml:space="preserve">
<path fill="#111214" opacity="1.000000" stroke="none" 
	d="
M1195.000000,1281.000000 
	C796.666687,1281.000000 398.833344,1281.000000 1.000000,1281.000000 
	C1.000000,854.333313 1.000000,427.666656 1.000000,1.000000 
	C427.666656,1.000000 854.333313,1.000000 1281.000000,1.000000 
	C1281.000000,427.666656 1281.000000,854.333313 1281.000000,1281.000000 
	C1252.500000,1281.000000 1224.000000,1281.000000 1195.000000,1281.000000 
M235.624741,597.061157 
	C237.756561,603.136414 240.242966,604.945312 246.545547,604.970398 
	C250.044769,604.984314 253.544617,605.004883 257.043304,604.957703 
	C262.691315,604.881592 265.482880,602.470703 267.025909,595.585327 
	C267.041290,591.091187 267.125031,586.595947 267.055756,582.103088 
	C266.955780,575.618469 263.328674,572.107788 256.724701,572.023254 
	C253.063004,571.976440 249.399414,571.964355 245.738144,572.024536 
	C239.502670,572.127075 235.349548,575.852478 235.045364,582.123047 
	C234.812714,586.918823 235.190445,591.744263 235.624741,597.061157 
M1137.796021,654.738159 
	C1133.268799,647.321228 1128.787964,639.875549 1124.188354,632.503723 
	C1122.654907,630.046082 1122.786255,628.331116 1125.005859,626.171875 
	C1130.010864,621.302795 1134.676514,616.084290 1139.466553,610.994995 
	C1148.305786,601.603455 1157.135254,592.202576 1166.717896,582.008728 
	C1149.846680,582.008728 1134.107910,581.971313 1118.370483,582.095032 
	C1117.350464,582.103027 1116.117554,583.159485 1115.358643,584.048340 
	C1102.715576,598.856384 1090.132446,613.715698 1076.991699,629.205017 
	C1076.991699,613.103516 1076.991699,597.738708 1076.991699,582.212158 
	C1064.502686,582.212158 1052.438232,582.212158 1040.348633,582.212158 
	C1040.348633,623.592712 1040.348633,664.758423 1040.348633,705.638916 
	C1052.790527,705.638916 1064.859253,705.638916 1076.999390,705.638916 
	C1076.999390,696.785461 1076.929565,688.293213 1077.057983,679.804016 
	C1077.083862,678.098328 1077.345215,675.942017 1078.380737,674.781006 
	C1084.281128,668.165894 1090.448853,661.789307 1096.628906,655.222168 
	C1104.545776,671.054565 1112.255615,686.612976 1120.159790,702.071960 
	C1120.982910,703.681946 1122.935547,705.799744 1124.400146,705.828308 
	C1138.819458,706.109436 1153.246582,705.998047 1168.474487,705.998047 
	C1158.065918,688.717957 1148.044189,672.080078 1137.796021,654.738159 
M192.586838,696.077148 
	C199.066498,691.725647 204.030136,685.865906 206.890015,678.779419 
	C216.522827,654.910339 216.080231,630.804382 205.527039,607.497803 
	C198.883926,592.826538 186.002441,584.266479 170.157639,583.281860 
	C147.609619,581.880737 124.940689,582.423828 102.323112,582.163208 
	C102.075417,582.160400 101.823555,582.518921 101.679565,582.628296 
	C101.679565,623.749634 101.679565,664.777771 101.679565,705.999573 
	C122.513870,705.999573 143.012970,706.572327 163.456467,705.754761 
	C173.478867,705.353882 183.712830,703.323181 192.586838,696.077148 
M357.366394,708.000610 
	C372.488403,707.484192 386.006256,702.255859 399.113983,694.935608 
	C406.496643,690.812683 410.572418,686.267212 409.151459,677.343750 
	C408.323517,672.144226 409.000763,666.705017 409.000763,661.373657 
	C409.000793,652.918091 409.000763,644.462463 409.000763,635.935608 
	C389.468292,635.935608 370.410583,635.935608 351.324036,635.935608 
	C351.324036,644.406677 351.324036,652.626404 351.324036,661.244385 
	C359.725281,661.244385 367.805786,661.244385 375.850647,661.244385 
	C376.361664,674.205750 376.280457,674.383545 364.689606,678.721680 
	C362.412537,679.573914 360.033173,680.324890 357.636505,680.657349 
	C343.546295,682.611572 328.973267,678.753662 324.825195,661.359070 
	C322.364105,651.038696 322.429871,640.765137 323.990723,630.391235 
	C325.944946,617.403320 333.543915,609.302124 347.135468,607.369080 
	C355.321533,606.204773 365.421387,608.040100 371.434601,621.788025 
	C383.327911,619.576660 395.235199,617.362671 407.393524,615.102051 
	C406.366272,612.155396 405.776398,610.108887 404.953949,608.160583 
	C398.928772,593.887512 388.874207,584.552368 373.146637,581.961914 
	C361.309570,580.012146 349.542297,579.585632 337.542328,580.864441 
	C318.970856,582.843689 304.197693,590.818542 294.685516,606.934753 
	C283.141571,626.493286 282.405762,647.392395 288.903259,668.807983 
	C294.213074,686.309021 305.242584,698.498108 322.557495,704.663513 
	C333.524323,708.568542 344.991730,708.144226 357.366394,708.000610 
M603.196594,625.187317 
	C596.266846,623.400085 589.179199,622.043579 582.493164,619.591736 
	C580.155701,618.734558 577.342407,615.149048 577.390015,612.864624 
	C577.445618,610.195801 579.782166,606.498840 582.193604,605.147522 
	C590.975647,600.226440 604.889404,603.322998 607.807922,615.608521 
	C608.580322,618.859924 610.055542,619.161133 612.572083,619.002563 
	C622.972351,618.347168 633.373108,617.700195 643.744019,617.052063 
	C643.638428,601.303040 632.896851,587.351501 617.389099,583.103271 
	C605.498596,579.845825 593.412170,579.320801 581.068787,580.850037 
	C568.909729,582.356506 558.294128,586.158325 549.911072,595.514221 
	C538.104431,608.691040 540.216370,632.251282 555.047241,641.812683 
	C562.347107,646.518921 570.698608,649.791626 578.895447,652.853088 
	C586.949646,655.861450 595.513367,657.482849 603.654968,660.288696 
	C608.602173,661.993652 612.512878,667.850098 611.853088,671.665222 
	C610.888672,677.242249 607.724304,681.177734 602.145020,682.990662 
	C593.803284,685.701172 582.957581,683.376709 578.696350,676.962280 
	C576.002747,672.907654 574.696655,667.931274 572.571228,662.902100 
	C561.574585,663.648743 549.880554,664.442749 538.005127,665.249023 
	C538.005127,666.308289 537.908936,667.134705 538.024170,667.930542 
	C538.304688,669.867065 538.522766,671.834290 539.047729,673.710327 
	C543.332275,689.023315 551.509583,700.674988 567.825500,705.121338 
	C582.481873,709.115479 597.348999,709.184631 612.036072,706.722412 
	C625.284546,704.501465 636.121704,697.623169 643.083313,685.458130 
	C652.527588,668.954773 648.795166,648.261047 633.749756,637.397827 
	C624.886108,630.997925 614.401855,628.186096 603.196594,625.187317 
M860.761963,706.001404 
	C872.064636,706.001404 883.367371,706.001404 895.124207,706.001404 
	C879.794312,664.461487 864.602112,623.294556 849.409485,582.126587 
	C835.626282,582.126587 822.163879,582.126587 808.547119,582.126587 
	C793.338867,623.341187 778.153870,664.492676 762.838135,705.998413 
	C764.524963,705.998413 765.682922,705.998291 766.840881,705.998352 
	C777.332275,705.999268 787.825562,706.094482 798.312439,705.876404 
	C799.561646,705.850464 801.432556,704.359436 801.887329,703.130127 
	C803.518982,698.719299 804.918213,694.183289 805.904114,689.587158 
	C806.520630,686.713074 807.796753,685.893555 810.568909,685.948914 
	C818.059753,686.098511 825.555664,685.975586 833.049316,686.009277 
	C838.536011,686.033997 845.640686,684.071106 849.071289,686.760681 
	C852.792725,689.678223 853.546082,696.863281 854.719788,702.373535 
	C855.457092,705.835266 857.095154,706.250671 860.761963,706.001404 
M904.792725,626.678589 
	C904.792725,653.065430 904.792725,679.452271 904.792725,705.734619 
	C919.727661,705.734619 933.654724,705.734619 947.822998,705.734619 
	C948.343689,695.502625 948.850830,685.537170 949.406067,674.626282 
	C955.937500,684.526733 962.111938,693.467468 967.785339,702.715698 
	C969.739075,705.900574 971.902466,706.813782 975.375427,706.761169 
	C986.363281,706.594727 997.355164,706.701050 1008.345520,706.701721 
	C1012.561401,706.701965 1016.777222,706.701721 1021.954224,706.701721 
	C1012.890320,691.074890 1004.352478,676.354919 995.711853,661.457886 
	C1011.352661,653.973450 1024.658813,645.338745 1022.814087,625.560120 
	C1021.813843,625.246887 1021.501465,625.065674 1021.187378,625.062622 
	C983.560120,624.701416 945.932922,624.337769 908.304932,624.077698 
	C907.149414,624.069763 905.986389,625.144165 904.792725,626.678589 
M737.466492,659.002869 
	C740.933899,658.112244 744.516296,657.528137 747.848999,656.278320 
	C762.625610,650.737244 768.724854,638.811768 769.859131,624.153137 
	C770.811462,611.845276 768.541443,600.069519 758.700623,591.258728 
	C750.181274,583.631042 739.460693,582.278320 728.724121,582.094421 
	C709.243896,581.760681 689.753906,581.993774 670.267944,582.017334 
	C669.182312,582.018616 668.096924,582.265015 667.334473,582.357910 
	C667.334473,623.793823 667.334473,664.842407 667.334473,705.722290 
	C679.780151,705.722290 691.871277,705.722290 704.384277,705.722290 
	C704.384277,690.377197 704.384277,675.307312 704.384277,660.001221 
	C708.626465,660.001221 712.445801,660.110291 716.256714,659.977173 
	C723.032532,659.740417 729.803284,659.356995 737.466492,659.002869 
M237.602173,706.002625 
	C247.349258,706.002625 257.096344,706.002625 266.700043,706.002625 
	C266.700043,675.670837 266.700043,645.966919 266.700043,616.284241 
	C255.631332,616.284241 244.880234,616.284241 233.781708,616.284241 
	C233.781708,645.618774 233.760803,674.709839 233.900497,703.800110 
	C233.904053,704.538757 235.673859,705.268982 237.602173,706.002625 
M465.065765,684.499939 
	C465.065765,661.775330 465.065765,639.050720 465.065765,616.272461 
	C453.740082,616.272461 443.002991,616.272461 432.069885,616.272461 
	C432.069885,646.191589 432.069885,675.881348 432.069885,705.702820 
	C443.116455,705.702820 453.981445,705.702820 465.065765,705.702820 
	C465.065765,698.770447 465.065765,692.135193 465.065765,684.499939 
M930.756653,608.919739 
	C939.356689,606.847961 947.975891,604.850098 956.539856,602.638489 
	C958.149658,602.222839 960.196472,601.324585 960.930054,600.022644 
	C969.649536,584.547607 978.158325,568.953735 987.139771,552.632385 
	C981.221985,553.937500 976.172607,555.449463 971.014526,556.104492 
	C960.722656,557.411499 954.223816,562.472168 949.800842,572.189758 
	C944.091675,584.733276 936.693909,596.508179 930.756653,608.919739 
M437.035339,575.496094 
	C430.160583,582.641235 429.964905,593.310059 436.584595,600.075012 
	C442.776886,606.403198 452.870667,606.745789 459.585083,600.855591 
	C466.313568,594.953064 467.233673,583.600220 461.517242,577.015869 
	C455.072479,569.592590 445.472900,568.776428 437.035339,575.496094 
M1005.589417,591.012817 
	C1010.296265,589.919434 1015.003113,588.826111 1019.763123,587.720398 
	C1016.930603,577.273193 1014.216614,567.263000 1011.185974,556.084961 
	C1004.012085,569.250793 997.444092,581.304626 990.245667,594.515381 
	C995.900391,593.171753 1000.324036,592.120667 1005.589417,591.012817 
M926.822327,567.562561 
	C917.933105,569.580444 909.025757,571.525391 900.182129,573.726685 
	C899.276855,573.952026 897.975891,575.894348 898.172180,576.732178 
	C900.355286,586.050903 902.797363,595.309082 905.386353,605.431335 
	C912.858337,592.531067 919.872131,580.421631 926.822327,567.562561 
z"/>
<path fill="#FEFEFE" opacity="1.000000" stroke="none" 
	d="
M1137.909180,655.090210 
	C1148.044189,672.080078 1158.065918,688.717957 1168.474487,705.998047 
	C1153.246582,705.998047 1138.819458,706.109436 1124.400146,705.828308 
	C1122.935547,705.799744 1120.982910,703.681946 1120.159790,702.071960 
	C1112.255615,686.612976 1104.545776,671.054565 1096.628906,655.222168 
	C1090.448853,661.789307 1084.281128,668.165894 1078.380737,674.781006 
	C1077.345215,675.942017 1077.083862,678.098328 1077.057983,679.804016 
	C1076.929565,688.293213 1076.999390,696.785461 1076.999390,705.638916 
	C1064.859253,705.638916 1052.790527,705.638916 1040.348633,705.638916 
	C1040.348633,664.758423 1040.348633,623.592712 1040.348633,582.212158 
	C1052.438232,582.212158 1064.502686,582.212158 1076.991699,582.212158 
	C1076.991699,597.738708 1076.991699,613.103516 1076.991699,629.205017 
	C1090.132446,613.715698 1102.715576,598.856384 1115.358643,584.048340 
	C1116.117554,583.159485 1117.350464,582.103027 1118.370483,582.095032 
	C1134.107910,581.971313 1149.846680,582.008728 1166.717896,582.008728 
	C1157.135254,592.202576 1148.305786,601.603455 1139.466553,610.994995 
	C1134.676514,616.084290 1130.010864,621.302795 1125.005859,626.171875 
	C1122.786255,628.331116 1122.654907,630.046082 1124.188354,632.503723 
	C1128.787964,639.875549 1133.268799,647.321228 1137.909180,655.090210 
z"/>
<path fill="#FDFEFE" opacity="1.000000" stroke="none" 
	d="
M192.312439,696.313049 
	C183.712830,703.323181 173.478867,705.353882 163.456467,705.754761 
	C143.012970,706.572327 122.513870,705.999573 101.679565,705.999573 
	C101.679565,664.777771 101.679565,623.749634 101.679565,582.628296 
	C101.823555,582.518921 102.075417,582.160400 102.323112,582.163208 
	C124.940689,582.423828 147.609619,581.880737 170.157639,583.281860 
	C186.002441,584.266479 198.883926,592.826538 205.527039,607.497803 
	C216.080231,630.804382 216.522827,654.910339 206.890015,678.779419 
	C204.030136,685.865906 199.066498,691.725647 192.312439,696.313049 
M139.003433,618.545776 
	C139.003433,638.299011 139.003433,658.052307 139.003433,678.001099 
	C144.757004,678.001099 149.912735,678.195435 155.048859,677.960571 
	C165.644547,677.476013 172.512466,672.264404 173.805420,661.979431 
	C175.053253,652.053528 175.384048,641.870544 174.731186,631.891235 
	C174.187851,623.585876 170.960541,615.361572 161.922791,612.742615 
	C154.675919,610.642578 146.921036,610.295715 139.003464,609.112915 
	C139.003464,612.931641 139.003464,615.247253 139.003433,618.545776 
z"/>
<path fill="#FEFEFE" opacity="1.000000" stroke="none" 
	d="
M356.881622,708.000610 
	C344.991730,708.144226 333.524323,708.568542 322.557495,704.663513 
	C305.242584,698.498108 294.213074,686.309021 288.903259,668.807983 
	C282.405762,647.392395 283.141571,626.493286 294.685516,606.934753 
	C304.197693,590.818542 318.970856,582.843689 337.542328,580.864441 
	C349.542297,579.585632 361.309570,580.012146 373.146637,581.961914 
	C388.874207,584.552368 398.928772,593.887512 404.953949,608.160583 
	C405.776398,610.108887 406.366272,612.155396 407.393524,615.102051 
	C395.235199,617.362671 383.327911,619.576660 371.434601,621.788025 
	C365.421387,608.040100 355.321533,606.204773 347.135468,607.369080 
	C333.543915,609.302124 325.944946,617.403320 323.990723,630.391235 
	C322.429871,640.765137 322.364105,651.038696 324.825195,661.359070 
	C328.973267,678.753662 343.546295,682.611572 357.636505,680.657349 
	C360.033173,680.324890 362.412537,679.573914 364.689606,678.721680 
	C376.280457,674.383545 376.361664,674.205750 375.850647,661.244385 
	C367.805786,661.244385 359.725281,661.244385 351.324036,661.244385 
	C351.324036,652.626404 351.324036,644.406677 351.324036,635.935608 
	C370.410583,635.935608 389.468292,635.935608 409.000763,635.935608 
	C409.000763,644.462463 409.000793,652.918091 409.000763,661.373657 
	C409.000763,666.705017 408.323517,672.144226 409.151459,677.343750 
	C410.572418,686.267212 406.496643,690.812683 399.113983,694.935608 
	C386.006256,702.255859 372.488403,707.484192 356.881622,708.000610 
z"/>
<path fill="#FEFEFE" opacity="1.000000" stroke="none" 
	d="
M603.559631,625.395630 
	C614.401855,628.186096 624.886108,630.997925 633.749756,637.397827 
	C648.795166,648.261047 652.527588,668.954773 643.083313,685.458130 
	C636.121704,697.623169 625.284546,704.501465 612.036072,706.722412 
	C597.348999,709.184631 582.481873,709.115479 567.825500,705.121338 
	C551.509583,700.674988 543.332275,689.023315 539.047729,673.710327 
	C538.522766,671.834290 538.304688,669.867065 538.024170,667.930542 
	C537.908936,667.134705 538.005127,666.308289 538.005127,665.249023 
	C549.880554,664.442749 561.574585,663.648743 572.571228,662.902100 
	C574.696655,667.931274 576.002747,672.907654 578.696350,676.962280 
	C582.957581,683.376709 593.803284,685.701172 602.145020,682.990662 
	C607.724304,681.177734 610.888672,677.242249 611.853088,671.665222 
	C612.512878,667.850098 608.602173,661.993652 603.654968,660.288696 
	C595.513367,657.482849 586.949646,655.861450 578.895447,652.853088 
	C570.698608,649.791626 562.347107,646.518921 555.047241,641.812683 
	C540.216370,632.251282 538.104431,608.691040 549.911072,595.514221 
	C558.294128,586.158325 568.909729,582.356506 581.068787,580.850037 
	C593.412170,579.320801 605.498596,579.845825 617.389099,583.103271 
	C632.896851,587.351501 643.638428,601.303040 643.744019,617.052063 
	C633.373108,617.700195 622.972351,618.347168 612.572083,619.002563 
	C610.055542,619.161133 608.580322,618.859924 607.807922,615.608521 
	C604.889404,603.322998 590.975647,600.226440 582.193604,605.147522 
	C579.782166,606.498840 577.445618,610.195801 577.390015,612.864624 
	C577.342407,615.149048 580.155701,618.734558 582.493164,619.591736 
	C589.179199,622.043579 596.266846,623.400085 603.559631,625.395630 
z"/>
<path fill="#FEFEFE" opacity="1.000000" stroke="none" 
	d="
M860.297485,706.001404 
	C857.095154,706.250671 855.457092,705.835266 854.719788,702.373535 
	C853.546082,696.863281 852.792725,689.678223 849.071289,686.760681 
	C845.640686,684.071106 838.536011,686.033997 833.049316,686.009277 
	C825.555664,685.975586 818.059753,686.098511 810.568909,685.948914 
	C807.796753,685.893555 806.520630,686.713074 805.904114,689.587158 
	C804.918213,694.183289 803.518982,698.719299 801.887329,703.130127 
	C801.432556,704.359436 799.561646,705.850464 798.312439,705.876404 
	C787.825562,706.094482 777.332275,705.999268 766.840881,705.998352 
	C765.682922,705.998291 764.524963,705.998413 762.838135,705.998413 
	C778.153870,664.492676 793.338867,623.341187 808.547119,582.126587 
	C822.163879,582.126587 835.626282,582.126587 849.409485,582.126587 
	C864.602112,623.294556 879.794312,664.461487 895.124207,706.001404 
	C883.367371,706.001404 872.064636,706.001404 860.297485,706.001404 
M839.212646,650.188660 
	C835.757141,638.539612 832.301697,626.890503 828.579468,614.342285 
	C823.964355,629.794739 819.638733,644.277832 815.274170,658.891357 
	C824.376892,658.891357 832.998657,658.891357 841.862915,658.891357 
	C841.099915,656.114380 840.380676,653.496948 839.212646,650.188660 
z"/>
<path fill="#E3BC20" opacity="1.000000" stroke="none" 
	d="
M904.809814,626.196228 
	C905.986389,625.144165 907.149414,624.069763 908.304932,624.077698 
	C945.932922,624.337769 983.560120,624.701416 1021.187378,625.062622 
	C1021.501465,625.065674 1021.813843,625.246887 1022.814087,625.560120 
	C1024.658813,645.338745 1011.352661,653.973450 995.711853,661.457886 
	C1004.352478,676.354919 1012.890320,691.074890 1021.954224,706.701721 
	C1016.777222,706.701721 1012.561401,706.701965 1008.345520,706.701721 
	C997.355164,706.701050 986.363281,706.594727 975.375427,706.761169 
	C971.902466,706.813782 969.739075,705.900574 967.785339,702.715698 
	C962.111938,693.467468 955.937500,684.526733 949.406067,674.626282 
	C948.850830,685.537170 948.343689,695.502625 947.822998,705.734619 
	C933.654724,705.734619 919.727661,705.734619 904.792725,705.734619 
	C904.792725,679.452271 904.792725,653.065430 904.809814,626.196228 
z"/>
<path fill="#FEFEFE" opacity="1.000000" stroke="none" 
	d="
M737.021301,659.018921 
	C729.803284,659.356995 723.032532,659.740417 716.256714,659.977173 
	C712.445801,660.110291 708.626465,660.001221 704.384277,660.001221 
	C704.384277,675.307312 704.384277,690.377197 704.384277,705.722290 
	C691.871277,705.722290 679.780151,705.722290 667.334473,705.722290 
	C667.334473,664.842407 667.334473,623.793823 667.334473,582.357910 
	C668.096924,582.265015 669.182312,582.018616 670.267944,582.017334 
	C689.753906,581.993774 709.243896,581.760681 728.724121,582.094421 
	C739.460693,582.278320 750.181274,583.631042 758.700623,591.258728 
	C768.541443,600.069519 770.811462,611.845276 769.859131,624.153137 
	C768.724854,638.811768 762.625610,650.737244 747.848999,656.278320 
	C744.516296,657.528137 740.933899,658.112244 737.021301,659.018921 
M731.146057,628.392578 
	C736.067444,619.462769 731.652771,610.023315 723.951050,608.621277 
	C717.573669,607.460327 710.949707,607.654297 704.404480,607.246033 
	C704.404480,617.031372 704.404480,625.789001 704.404480,634.967102 
	C709.561523,634.967102 714.660339,635.716370 719.402771,634.738220 
	C723.447388,633.903992 727.082275,631.083862 731.146057,628.392578 
z"/>
<path fill="#FEFEFE" opacity="1.000000" stroke="none" 
	d="
M237.111053,706.002869 
	C235.673859,705.268982 233.904053,704.538757 233.900497,703.800110 
	C233.760803,674.709839 233.781708,645.618774 233.781708,616.284241 
	C244.880234,616.284241 255.631332,616.284241 266.700043,616.284241 
	C266.700043,645.966919 266.700043,675.670837 266.700043,706.002625 
	C257.096344,706.002625 247.349258,706.002625 237.111053,706.002869 
z"/>
<path fill="#FEFEFE" opacity="1.000000" stroke="none" 
	d="
M465.065765,684.999878 
	C465.065765,692.135193 465.065765,698.770447 465.065765,705.702820 
	C453.981445,705.702820 443.116455,705.702820 432.069885,705.702820 
	C432.069885,675.881348 432.069885,646.191589 432.069885,616.272461 
	C443.002991,616.272461 453.740082,616.272461 465.065765,616.272461 
	C465.065765,639.050720 465.065765,661.775330 465.065765,684.999878 
z"/>
<path fill="#E3BC20" opacity="1.000000" stroke="none" 
	d="
M930.389954,608.766907 
	C936.693909,596.508179 944.091675,584.733276 949.800842,572.189758 
	C954.223816,562.472168 960.722656,557.411499 971.014526,556.104492 
	C976.172607,555.449463 981.221985,553.937500 987.139771,552.632385 
	C978.158325,568.953735 969.649536,584.547607 960.930054,600.022644 
	C960.196472,601.324585 958.149658,602.222839 956.539856,602.638489 
	C947.975891,604.850098 939.356689,606.847961 930.389954,608.766907 
z"/>
<path fill="#485C99" opacity="1.000000" stroke="none" 
	d="
M437.299377,575.237671 
	C445.472900,568.776428 455.072479,569.592590 461.517242,577.015869 
	C467.233673,583.600220 466.313568,594.953064 459.585083,600.855591 
	C452.870667,606.745789 442.776886,606.403198 436.584595,600.075012 
	C429.964905,593.310059 430.160583,582.641235 437.299377,575.237671 
M449.775146,576.016174 
	C443.867340,577.017639 446.962646,583.937256 443.084747,586.314819 
	C443.048553,586.337036 443.613129,587.336670 443.895355,587.880920 
	C444.594666,589.229370 445.717987,590.524170 445.898773,591.939148 
	C446.226227,594.502319 445.991547,597.137268 445.991547,599.538330 
	C449.498840,600.579651 450.460663,599.449280 450.408783,596.554260 
	C450.359589,593.808899 449.920471,589.242554 451.206146,588.603943 
	C458.447754,585.006470 452.118683,584.519409 449.817566,582.771667 
	C450.452698,581.875122 451.048370,581.000244 451.679718,580.151855 
	C452.410278,579.170105 453.172272,578.211731 453.920624,577.243164 
	C452.821198,576.832031 451.721802,576.420837 449.775146,576.016174 
z"/>
<path fill="#E3BC20" opacity="1.000000" stroke="none" 
	d="
M1005.168579,591.041138 
	C1000.324036,592.120667 995.900391,593.171753 990.245667,594.515381 
	C997.444092,581.304626 1004.012085,569.250793 1011.185974,556.084961 
	C1014.216614,567.263000 1016.930603,577.273193 1019.763123,587.720398 
	C1015.003113,588.826111 1010.296265,589.919434 1005.168579,591.041138 
z"/>
<path fill="#E3BC20" opacity="1.000000" stroke="none" 
	d="
M926.854126,567.937378 
	C919.872131,580.421631 912.858337,592.531067 905.386353,605.431335 
	C902.797363,595.309082 900.355286,586.050903 898.172180,576.732178 
	C897.975891,575.894348 899.276855,573.952026 900.182129,573.726685 
	C909.025757,571.525391 917.933105,569.580444 926.854126,567.937378 
z"/>
<path fill="#9F366D" opacity="1.000000" stroke="none" 
	d="
M235.296692,596.556519 
	C235.190445,591.744263 234.812714,586.918823 235.045364,582.123047 
	C235.349548,575.852478 239.502670,572.127075 245.738144,572.024536 
	C249.399414,571.964355 253.063004,571.976440 256.724701,572.023254 
	C263.328674,572.107788 266.955780,575.618469 267.055756,582.103088 
	C267.125031,586.595947 267.041290,591.091187 266.607849,596.000122 
	C265.521149,596.455994 264.852478,596.497131 264.099121,596.023682 
	C263.987946,591.199951 263.910065,586.890381 263.948700,582.581970 
	C263.991394,577.821106 261.109833,575.597717 256.947845,575.146362 
	C253.182053,574.738037 249.319305,574.893066 245.525360,575.164185 
	C241.403931,575.458740 238.735016,577.465637 238.813599,582.093750 
	C238.900772,587.226685 238.837479,592.362122 238.560028,597.332520 
	C237.285812,596.964600 236.291260,596.760559 235.296692,596.556519 
z"/>
<path fill="#E3BC20" opacity="1.000000" stroke="none" 
	d="
M235.460724,596.808838 
	C236.291260,596.760559 237.285812,596.964600 238.624237,597.650391 
	C241.279526,599.441528 243.459015,601.388245 245.935425,601.900818 
	C249.111130,602.558350 252.525681,602.072327 255.837250,602.060913 
	C259.822449,602.047241 262.868073,600.595276 264.183838,596.538330 
	C264.852478,596.497131 265.521149,596.455994 266.517883,596.497681 
	C265.482880,602.470703 262.691315,604.881592 257.043304,604.957703 
	C253.544617,605.004883 250.044769,604.984314 246.545547,604.970398 
	C240.242966,604.945312 237.756561,603.136414 235.460724,596.808838 
z"/>
<path fill="#111214" opacity="1.000000" stroke="none" 
	d="
M139.003448,618.054321 
	C139.003464,615.247253 139.003464,612.931641 139.003464,609.112915 
	C146.921036,610.295715 154.675919,610.642578 161.922791,612.742615 
	C170.960541,615.361572 174.187851,623.585876 174.731186,631.891235 
	C175.384048,641.870544 175.053253,652.053528 173.805420,661.979431 
	C172.512466,672.264404 165.644547,677.476013 155.048859,677.960571 
	C149.912735,678.195435 144.757004,678.001099 139.003433,678.001099 
	C139.003433,658.052307 139.003433,638.299011 139.003448,618.054321 
z"/>
<path fill="#111214" opacity="1.000000" stroke="none" 
	d="
M839.437073,650.534119 
	C840.380676,653.496948 841.099915,656.114380 841.862915,658.891357 
	C832.998657,658.891357 824.376892,658.891357 815.274170,658.891357 
	C819.638733,644.277832 823.964355,629.794739 828.579468,614.342285 
	C832.301697,626.890503 835.757141,638.539612 839.437073,650.534119 
z"/>
<path fill="#111214" opacity="1.000000" stroke="none" 
	d="
M731.022217,628.767395 
	C727.082275,631.083862 723.447388,633.903992 719.402771,634.738220 
	C714.660339,635.716370 709.561523,634.967102 704.404480,634.967102 
	C704.404480,625.789001 704.404480,617.031372 704.404480,607.246033 
	C710.949707,607.654297 717.573669,607.460327 723.951050,608.621277 
	C731.652771,610.023315 736.067444,619.462769 731.022217,628.767395 
z"/>
<path fill="#FDFEFE" opacity="1.000000" stroke="none" 
	d="
M450.198761,576.012939 
	C451.721802,576.420837 452.821198,576.832031 453.920624,577.243164 
	C453.172272,578.211731 452.410278,579.170105 451.679718,580.151855 
	C451.048370,581.000244 450.452698,581.875122 449.817566,582.771667 
	C452.118683,584.519409 458.447754,585.006470 451.206146,588.603943 
	C449.920471,589.242554 450.359589,593.808899 450.408783,596.554260 
	C450.460663,599.449280 449.498840,600.579651 445.991547,599.538330 
	C445.991547,597.137268 446.226227,594.502319 445.898773,591.939148 
	C445.717987,590.524170 444.594666,589.229370 443.895355,587.880920 
	C443.613129,587.336670 443.048553,586.337036 443.084747,586.314819 
	C446.962646,583.937256 443.867340,577.017639 450.198761,576.012939 
z"/>
<path fill="#111214" opacity="1.000000" stroke="none" 
	d="
M264.099121,596.023682 
	C262.868073,600.595276 259.822449,602.047241 255.837250,602.060913 
	C252.525681,602.072327 249.111130,602.558350 245.935425,601.900818 
	C243.459015,601.388245 241.279526,599.441528 238.903900,597.814270 
	C238.837479,592.362122 238.900772,587.226685 238.813599,582.093750 
	C238.735016,577.465637 241.403931,575.458740 245.525360,575.164185 
	C249.319305,574.893066 253.182053,574.738037 256.947845,575.146362 
	C261.109833,575.597717 263.991394,577.821106 263.948700,582.581970 
	C263.910065,586.890381 263.987946,591.199951 264.099121,596.023682 
M242.930573,589.347107 
	C243.768509,593.907349 246.309875,597.488708 251.046127,596.830017 
	C253.907532,596.432068 257.397919,593.988037 258.845978,591.456665 
	C261.337341,587.101562 258.140350,581.528198 253.368286,580.179688 
	C248.533905,578.813416 244.214493,582.269958 242.930573,589.347107 
z"/>
<path fill="#9F366D" opacity="1.000000" stroke="none" 
	d="
M242.921234,588.947083 
	C244.214493,582.269958 248.533905,578.813416 253.368286,580.179688 
	C258.140350,581.528198 261.337341,587.101562 258.845978,591.456665 
	C257.397919,593.988037 253.907532,596.432068 251.046127,596.830017 
	C246.309875,597.488708 243.768509,593.907349 242.921234,588.947083 
M246.896561,590.591614 
	C248.743515,591.595520 250.544037,593.214172 252.455917,593.358582 
	C253.500778,593.437500 255.340698,591.190918 255.757278,589.696289 
	C256.649384,586.495422 254.842636,583.668823 251.787674,583.491028 
	C248.002014,583.270630 245.870667,585.794434 246.896561,590.591614 
z"/>
<path fill="#111214" opacity="1.000000" stroke="none" 
	d="
M246.730621,590.260498 
	C245.870667,585.794434 248.002014,583.270630 251.787674,583.491028 
	C254.842636,583.668823 256.649384,586.495422 255.757278,589.696289 
	C255.340698,591.190918 253.500778,593.437500 252.455917,593.358582 
	C250.544037,593.214172 248.743515,591.595520 246.730621,590.260498 
z"/>
</svg>